<svg width="38" height="38" viewBox="0 0 38 38" fill="none" xmlns="http://www.w3.org/2000/svg">
<g id="arrow 1" clip-path="url(#clip0_7_692)">
<path id="Vector" d="M21.5228 29.1966L31.6667 18.9999L21.5228 8.80326C21.4312 8.68296 21.3148 8.58374 21.1815 8.51233C21.0482 8.44092 20.9011 8.39898 20.7502 8.38935C20.5993 8.37972 20.4481 8.40263 20.3068 8.45652C20.1655 8.51042 20.0374 8.59404 19.9313 8.70172C19.8251 8.80941 19.7433 8.93865 19.6915 9.08069C19.6396 9.22273 19.6189 9.37426 19.6306 9.52501C19.6424 9.67577 19.6865 9.82223 19.7598 9.95449C19.8331 10.0867 19.9339 10.2017 20.0555 10.2916L27.645 17.9444L7.45221 17.9444C7.17226 17.9444 6.90378 18.0556 6.70582 18.2535C6.50787 18.4515 6.39666 18.72 6.39666 18.9999C6.39666 19.2799 6.50787 19.5484 6.70582 19.7463C6.90378 19.9443 7.17226 20.0555 7.45221 20.0555L27.645 20.0555L20.0555 27.7083C19.8582 27.907 19.7479 28.1761 19.7488 28.4562C19.7498 28.7363 19.8621 29.0045 20.0608 29.2019C20.2596 29.3992 20.5286 29.5096 20.8087 29.5086C21.0888 29.5076 21.3571 29.3954 21.5544 29.1966H21.5228Z" fill="#977930"/>
</g>
<defs>
<clipPath id="clip0_7_692">
<rect width="38" height="38" fill="white" transform="matrix(0 1 -1 0 38 0)"/>
</clipPath>
</defs>
</svg>
