<svg width="24" height="24" viewBox="0 0 24 24" fill="none" xmlns="http://www.w3.org/2000/svg">
<g id="check 1" clip-path="url(#clip0_17_458)">
<path id="Vector" d="M9.14666 18.4595L2.19332 11.5129C2.08411 11.3853 2.02704 11.2213 2.03352 11.0535C2.04 10.8857 2.10955 10.7265 2.22828 10.6078C2.34701 10.4891 2.50617 10.4195 2.67396 10.413C2.84174 10.4066 3.00579 10.4636 3.13332 10.5729L9.13333 16.5729L20.86 4.85952C20.9875 4.75031 21.1516 4.69324 21.3194 4.69972C21.4871 4.7062 21.6463 4.77575 21.765 4.89448C21.8838 5.01321 21.9533 5.17237 21.9598 5.34015C21.9663 5.50794 21.9092 5.67199 21.8 5.79952L9.14666 18.4595Z" fill="white"/>
</g>
<defs>
<clipPath id="clip0_17_458">
<rect width="24" height="24" fill="white"/>
</clipPath>
</defs>
</svg>
