<svg width="48" height="48" viewBox="0 0 48 48" fill="none" xmlns="http://www.w3.org/2000/svg">
<g id="job 1" clip-path="url(#clip0_5_19)">
<path id="Vector" d="M42.6667 37.3334H5.33335V28.4267C4.34035 27.951 3.43793 27.3058 2.66669 26.52V37.3334C2.66669 38.0406 2.94764 38.7189 3.44774 39.219C3.94783 39.7191 4.62611 40 5.33335 40H42.6667C43.3739 40 44.0522 39.7191 44.5523 39.219C45.0524 38.7189 45.3334 38.0406 45.3334 37.3334V26.52C44.5678 27.3089 43.6639 27.9507 42.6667 28.4134V37.3334Z" fill="white"/>
<path id="Vector_2" d="M33.3334 29.8666C33.687 29.8666 34.0261 29.7262 34.2762 29.4761C34.5262 29.2261 34.6667 28.8869 34.6667 28.5333V21.2533H32V24H18.6667V26.6666H32V28.5333C32 28.8869 32.1405 29.2261 32.3905 29.4761C32.6406 29.7262 32.9797 29.8666 33.3334 29.8666Z" fill="white"/>
<path id="Vector_3" d="M44 7.99997H32V5.83997C31.986 4.98651 31.6343 4.17339 31.0221 3.57863C30.4098 2.98387 29.5869 2.65594 28.7334 2.66664H19.2667C18.4132 2.65594 17.5902 2.98387 16.978 3.57863C16.3657 4.17339 16.0141 4.98651 16 5.83997V7.99997H4.00002C3.6464 7.99997 3.30726 8.14045 3.05721 8.39049C2.80716 8.64054 2.66669 8.97968 2.66669 9.3333V20C2.66669 21.7681 3.36907 23.4638 4.61931 24.714C5.86955 25.9643 7.56524 26.6666 9.33335 26.6666H13.3334V28.5333C13.3334 28.8869 13.4738 29.2261 13.7239 29.4761C13.9739 29.7262 14.3131 29.8666 14.6667 29.8666C15.0203 29.8666 15.3594 29.7262 15.6095 29.4761C15.8595 29.2261 16 28.8869 16 28.5333V21.2533H13.3334V24H9.33335C8.27249 24 7.25507 23.5785 6.50493 22.8284C5.75478 22.0783 5.33335 21.0608 5.33335 20V10.6666H42.6667V20C42.6667 21.0608 42.2453 22.0783 41.4951 22.8284C40.745 23.5785 39.7276 24 38.6667 24H37.3334V26.6666H38.6667C40.4348 26.6666 42.1305 25.9643 43.3807 24.714C44.631 23.4638 45.3334 21.7681 45.3334 20V9.3333C45.3334 8.97968 45.1929 8.64054 44.9428 8.39049C44.6928 8.14045 44.3536 7.99997 44 7.99997ZM29.3334 7.99997H18.6667V5.90664C18.6736 5.75217 18.7398 5.60632 18.8516 5.49951C18.9634 5.39269 19.1121 5.33315 19.2667 5.3333H28.7467C28.822 5.33153 28.8969 5.34461 28.9671 5.3718C29.0374 5.39899 29.1016 5.43975 29.156 5.49175C29.2105 5.54376 29.2542 5.60599 29.2847 5.67489C29.3151 5.74379 29.3316 5.818 29.3334 5.8933V7.99997Z" fill="white"/>
</g>
<defs>
<clipPath id="clip0_5_19">
<rect width="48" height="48" fill="white"/>
</clipPath>
</defs>
</svg>
