<svg width="48" height="48" viewBox="0 0 48 48" fill="none" xmlns="http://www.w3.org/2000/svg">
<g id="contract 1">
<path id="Vector" d="M10.6667 10.9333H32V13.0667H10.6667V10.9333ZM10.6667 21.6H21.448V23.7333H10.6667V21.6ZM31.1707 16.2667H10.6667V18.4H29.0387L31.1707 16.2667ZM17.0573 38.7627C17.416 39.1739 17.8712 39.4896 18.382 39.6814C18.8929 39.8732 19.4433 39.935 19.984 39.8613H30.388C30.6355 39.8613 30.8729 39.763 31.048 39.588C31.223 39.4129 31.3213 39.1755 31.3213 38.928C31.3213 38.6805 31.223 38.4431 31.048 38.268C30.8729 38.093 30.6355 37.9947 30.388 37.9947H19.984C18.7693 37.9734 18.9853 36.9187 19.156 36.592C19.3785 36.2086 19.5519 35.7987 19.672 35.372C19.7517 35.0287 19.7142 34.6685 19.5653 34.3491C19.4164 34.0296 19.1648 33.7691 18.8507 33.6093C18.3459 33.382 17.7806 33.3262 17.2412 33.4507C16.7018 33.5752 16.218 33.8731 15.864 34.2987C15.4053 34.772 14.768 35.496 14.1573 36.2C14.5347 34.7213 15.024 32.824 15.504 30.9733C15.6416 30.5517 15.6142 30.0935 15.4274 29.6912C15.2406 29.2889 14.9082 28.9724 14.4973 28.8053C14.0423 28.6492 13.5449 28.6715 13.1057 28.8678C12.6665 29.064 12.318 29.4196 12.1307 29.8627C11.5547 30.9707 6.99467 38.612 6.94934 38.6894C6.88648 38.7946 6.84496 38.9112 6.82716 39.0324C6.80936 39.1537 6.81561 39.2773 6.84558 39.3962C6.87554 39.515 6.92862 39.6268 7.00178 39.7252C7.07495 39.8235 7.16677 39.9065 7.27201 39.9693C7.48453 40.0963 7.73879 40.1336 7.97883 40.0731C8.21888 40.0126 8.42506 39.8592 8.55201 39.6467C8.72267 39.36 12.3627 33.2627 13.5107 31.2267C12.6467 34.56 11.6947 38.2693 11.6387 38.6027C11.5756 38.8477 11.5946 39.1067 11.6925 39.34C11.7905 39.5733 11.9622 39.7681 12.1813 39.8947C12.4254 40.0157 12.7028 40.0521 12.9698 39.998C13.2369 39.9439 13.4783 39.8025 13.656 39.596C13.824 39.444 14.1387 39.0827 14.932 38.1614C15.6712 37.292 16.4282 36.4381 17.2027 35.6C17.4933 35.2933 17.6693 35.4293 17.4987 35.7307C17.1648 36.1526 16.9483 36.6551 16.8711 37.1875C16.7938 37.7199 16.8572 38.2633 17.0573 38.7627Z" fill="white"/>
<path id="Vector_2" d="M37.3333 28.9266V42.6666H5.33332V5.33329H37.3333V11.9906L39.1067 10.2173C39.3796 9.94805 39.6789 9.70685 40 9.49729V3.99996C40 3.64634 39.8595 3.3072 39.6095 3.05715C39.3594 2.8071 39.0203 2.66663 38.6667 2.66663H3.99999C3.64637 2.66663 3.30723 2.8071 3.05718 3.05715C2.80713 3.3072 2.66666 3.64634 2.66666 3.99996V44C2.66666 44.3536 2.80713 44.6927 3.05718 44.9428C3.30723 45.1928 3.64637 45.3333 3.99999 45.3333H38.6667C39.0203 45.3333 39.3594 45.1928 39.6095 44.9428C39.8595 44.6927 40 44.3536 40 44V28.5693C39.1822 29.0026 38.2364 29.1294 37.3333 28.9266Z" fill="white"/>
<path id="Vector_3" d="M45.504 15.8147L44.8067 15.1174C45.1631 14.6464 45.3435 14.0656 45.3167 13.4756C45.2899 12.8855 45.0576 12.3235 44.66 11.8867C44.1439 11.4318 43.469 11.1993 42.7822 11.2397C42.0954 11.2802 41.4525 11.5904 40.9933 12.1027L24.2933 28.8L23.1773 32.9894C23.1597 33.0442 23.1575 33.1028 23.1711 33.1588C23.1847 33.2147 23.2136 33.2659 23.2544 33.3064C23.2953 33.347 23.3466 33.3755 23.4026 33.3887C23.4587 33.402 23.5173 33.3994 23.572 33.3814L27.7467 32.252L43.336 16.6627L43.9947 17.3227C44.0407 17.3687 44.0772 17.4232 44.1021 17.4833C44.127 17.5433 44.1398 17.6077 44.1398 17.6727C44.1398 17.7377 44.127 17.8021 44.1021 17.8622C44.0772 17.9222 44.0407 17.9768 43.9947 18.0227L37.4387 24.5787C37.2387 24.7789 37.1264 25.0503 37.1265 25.3332C37.1267 25.6161 37.2392 25.8874 37.4393 26.0874C37.6395 26.2874 37.9109 26.3996 38.1938 26.3995C38.4767 26.3994 38.748 26.2869 38.948 26.0867L45.504 19.5307C45.9968 19.0377 46.2736 18.3691 46.2736 17.672C46.2736 16.975 45.9968 16.3064 45.504 15.8134V15.8147Z" fill="white"/>
</g>
</svg>
