<svg width="49" height="49" viewBox="0 0 49 49" fill="none" xmlns="http://www.w3.org/2000/svg">
<g id="family 1">
<path id="Vector" d="M36.6128 11.6743C35.6821 11.6743 34.8855 11.343 34.2228 10.6803C33.5601 10.0163 33.2288 9.21896 33.2288 8.2883C33.2288 7.35763 33.5601 6.56096 34.2228 5.8983C34.8855 5.23563 35.6821 4.9043 36.6128 4.9043C37.5435 4.9043 38.3401 5.23563 39.0028 5.8983C39.6655 6.56096 39.9968 7.35763 39.9968 8.2883C39.9968 9.21896 39.6655 10.0163 39.0028 10.6803C38.3401 11.343 37.5435 11.6743 36.6128 11.6743ZM34.0728 43.0583V22.1503H30.9248L33.8828 14.2103H39.3828L45.6128 30.8283H40.3048V43.0583H34.0748H34.0728ZM25.6088 22.9043C24.8808 22.9043 24.2635 22.6496 23.7568 22.1403C23.2501 21.631 22.9968 21.0123 22.9968 20.2843C22.9968 19.5563 23.2515 18.9396 23.7608 18.4343C24.2701 17.929 24.8888 17.6756 25.6168 17.6743C26.3448 17.6743 26.9621 17.929 27.4688 18.4383C27.9755 18.9476 28.2288 19.5663 28.2288 20.2943C28.2288 21.021 27.9741 21.6376 27.4648 22.1443C26.9555 22.651 26.3368 22.9043 25.6088 22.9043ZM11.6128 11.6743C10.6821 11.6743 9.88547 11.343 9.2228 10.6803C8.56013 10.0163 8.2288 9.21896 8.2288 8.2883C8.2288 7.35763 8.56013 6.56096 9.2228 5.8983C9.88547 5.23563 10.6821 4.9043 11.6128 4.9043C12.5435 4.9043 13.3401 5.23563 14.0028 5.8983C14.6655 6.56096 14.9968 7.35763 14.9968 8.2883C14.9968 9.21896 14.6655 10.0163 14.0028 10.6803C13.3401 11.343 12.5435 11.6743 11.6128 11.6743ZM8.0728 43.0583V29.9043H4.7688V14.9043H18.4608V29.9043H15.1528V43.0583H8.0728ZM23.1528 43.0583V36.0583H21.1528V25.0583H30.0728V36.0583H28.0728V43.0583H23.1528Z" fill="white"/>
</g>
</svg>
