<svg width="24" height="24" viewBox="0 0 24 24" fill="none" xmlns="http://www.w3.org/2000/svg">
<g id="map 1" clip-path="url(#clip0_5_67)">
<path id="Vector" d="M12 4.47998C11.2445 4.47998 10.5059 4.70402 9.87772 5.12377C9.24952 5.54351 8.7599 6.14012 8.47077 6.83813C8.18165 7.53614 8.106 8.30422 8.25339 9.04523C8.40079 9.78623 8.76461 10.4669 9.29885 11.0011C9.83308 11.5354 10.5137 11.8992 11.2547 12.0466C11.9958 12.194 12.7638 12.1183 13.4618 11.8292C14.1599 11.5401 14.7565 11.0505 15.1762 10.4223C15.596 9.79406 15.82 9.05551 15.82 8.29998C15.82 7.28685 15.4175 6.31522 14.7011 5.59883C13.9848 4.88244 13.0131 4.47998 12 4.47998ZM12 10.7866C11.5082 10.7866 11.0274 10.6408 10.6185 10.3676C10.2095 10.0943 9.89082 9.70597 9.70261 9.25159C9.5144 8.79721 9.46516 8.29722 9.56111 7.81486C9.65706 7.33249 9.89389 6.88941 10.2417 6.54164C10.5894 6.19388 11.0325 5.95704 11.5149 5.86109C11.9972 5.76515 12.4972 5.81439 12.9516 6.0026C13.406 6.19081 13.7943 6.50953 14.0676 6.91846C14.3408 7.32739 14.4867 7.80816 14.4867 8.29998C14.4849 8.95833 14.2221 9.58911 13.756 10.054C13.2898 10.5189 12.6583 10.78 12 10.78V10.7866Z" fill="white"/>
<path id="Vector_2" d="M12 1.33325C9.92347 1.33499 7.93199 2.15838 6.46054 3.62358C4.98909 5.08879 4.15723 7.07674 4.14667 9.15325C4.14667 12.2666 5.89333 14.8733 7.17333 16.7733L7.40667 17.1199C8.68019 18.9657 10.0464 20.7457 11.5 22.4533L12.0067 23.0466L12.5133 22.4533C13.9668 20.7456 15.333 18.9655 16.6067 17.1199L16.84 16.7666C18.1133 14.8666 19.86 12.2666 19.86 9.15325C19.8494 7.07559 19.0167 5.08663 17.5438 3.62123C16.0709 2.15584 14.0777 1.33323 12 1.33325ZM15.7267 15.9999L15.4867 16.3533C14.34 18.0733 12.82 19.9999 12 20.9533C11.2133 19.9999 9.66 18.0733 8.51333 16.3533L8.28 15.9999C7.1 14.2399 5.48 11.8333 5.48 9.12659C5.48 8.27037 5.64865 7.42253 5.97631 6.63149C6.30397 5.84045 6.78423 5.12169 7.38966 4.51625C7.9951 3.91081 8.71386 3.43055 9.5049 3.10289C10.2959 2.77523 11.1438 2.60659 12 2.60659C12.8562 2.60659 13.7041 2.77523 14.4951 3.10289C15.2861 3.43055 16.0049 3.91081 16.6103 4.51625C17.2158 5.12169 17.696 5.84045 18.0237 6.63149C18.3514 7.42253 18.52 8.27037 18.52 9.12659C18.52 11.8599 16.9067 14.2666 15.7267 15.9999Z" fill="white"/>
</g>
<defs>
<clipPath id="clip0_5_67">
<rect width="24" height="24" fill="white"/>
</clipPath>
</defs>
</svg>
