<svg width="32" height="32" viewBox="0 0 32 32" fill="none" xmlns="http://www.w3.org/2000/svg">
<g id="menu 1" clip-path="url(#clip0_48_448)">
<path id="Vector" d="M28.4444 25.7778H3.55551C3.31977 25.7778 3.09367 25.6841 2.92698 25.5174C2.76028 25.3507 2.66663 25.1246 2.66663 24.8889C2.66663 24.6531 2.76028 24.427 2.92698 24.2603C3.09367 24.0936 3.31977 24 3.55551 24H28.4444C28.6802 24 28.9062 24.0936 29.0729 24.2603C29.2396 24.427 29.3333 24.6531 29.3333 24.8889C29.3333 25.1246 29.2396 25.3507 29.0729 25.5174C28.9062 25.6841 28.6802 25.7778 28.4444 25.7778Z" fill="#977930"/>
<path id="Vector_2" d="M28.4444 16.8891H3.55551C3.31977 16.8891 3.09367 16.7955 2.92698 16.6288C2.76028 16.4621 2.66663 16.236 2.66663 16.0002C2.66663 15.7645 2.76028 15.5384 2.92698 15.3717C3.09367 15.205 3.31977 15.1113 3.55551 15.1113H28.4444C28.6802 15.1113 28.9062 15.205 29.0729 15.3717C29.2396 15.5384 29.3333 15.7645 29.3333 16.0002C29.3333 16.236 29.2396 16.4621 29.0729 16.6288C28.9062 16.7955 28.6802 16.8891 28.4444 16.8891Z" fill="#977930"/>
<path id="Vector_3" d="M28.4444 7.99995H3.55551C3.31977 7.99995 3.09367 7.9063 2.92698 7.7396C2.76028 7.5729 2.66663 7.3468 2.66663 7.11106C2.66663 6.87531 2.76028 6.64922 2.92698 6.48252C3.09367 6.31582 3.31977 6.22217 3.55551 6.22217H28.4444C28.6802 6.22217 28.9062 6.31582 29.0729 6.48252C29.2396 6.64922 29.3333 6.87531 29.3333 7.11106C29.3333 7.3468 29.2396 7.5729 29.0729 7.7396C28.9062 7.9063 28.6802 7.99995 28.4444 7.99995Z" fill="#977930"/>
</g>
<defs>
<clipPath id="clip0_48_448">
<rect width="32" height="32" fill="white"/>
</clipPath>
</defs>
</svg>
