<svg width="48" height="48" viewBox="0 0 48 48" fill="none" xmlns="http://www.w3.org/2000/svg">
<g id="convict 1">
<path id="Vector" d="M17.3438 2.34375V3.65625H30.6562V2.34375H17.3438ZM17.3438 5.34375V6.65625H30.6562V5.34375H17.3438ZM17.5793 8.34375C17.4268 9.02812 17.3438 9.75 17.3438 10.5C17.3438 15.0906 20.4051 18.6562 24 18.6562C27.5949 18.6562 30.6562 15.0906 30.6562 10.5C30.6562 9.75 30.5732 9.02812 30.4208 8.34375H17.5793ZM19.5505 19.4738C17.4765 20.1162 15.8085 21.2171 14.4305 22.6222C14.4172 22.6357 14.4042 22.6497 14.3909 22.6634C17.2338 23.0716 19.9169 23.3184 22.4988 23.4047L19.5503 19.4738H19.5505ZM28.4493 19.4738L25.4805 23.4322C28.2746 23.389 30.9724 23.1478 33.6542 22.7106C33.6257 22.6811 33.5979 22.6512 33.5693 22.6222C32.1911 21.2171 30.5233 20.1162 28.4493 19.4737V19.4738ZM22.1271 20.0967L24 22.5939L25.8728 20.0967C25.2621 20.2609 24.6324 20.344 24 20.3438C23.3676 20.344 22.7378 20.2609 22.1271 20.0967ZM12.1039 25.7264C11.7439 26.3483 11.4173 26.9974 11.1202 27.6656L13.8211 28.3409C24.1777 29.8208 23.8219 29.8208 34.1786 28.3409L36.8796 27.6656C36.5842 27.0014 36.2599 26.3559 35.9024 25.7377C28.439 27.1745 20.919 27.161 12.1039 25.7264ZM9.95653 30.8536C9.90723 31.0189 9.85932 31.1846 9.81281 31.3507C9.6412 31.9705 9.4872 32.5949 9.351 33.2234L12.6563 34.0495V31.5286L9.95672 30.8536H9.95653ZM38.0431 30.8536L35.3436 31.5286V34.0008L38.6114 33.0588C38.4847 32.4858 38.3431 31.9162 38.1867 31.3507C38.1402 31.1846 38.0924 31.0189 38.0431 30.8536ZM14.3438 31.8244V34.4447C21.2567 35.7759 26.7435 35.7756 33.6562 34.4443V31.8244C24.5742 33.1136 23.4258 33.1136 14.3438 31.8244ZM39.2051 36.3999L35.3438 37.5131V40.0495L39.49 39.013C39.4181 38.1396 39.3231 37.2682 39.205 36.3998L39.2051 36.3999ZM8.77406 36.5578C8.66577 37.3739 8.57771 38.1926 8.50997 39.0131L12.6563 40.0494V37.5285L8.77406 36.5578ZM14.3438 37.8787V40.4262C22.6497 41.7811 26.7622 41.7863 33.6562 40.4454V37.8786C26.8952 39.1127 21.1048 39.1127 14.3438 37.8786V37.8787ZM8.3295 42.4468C8.29613 43.8328 8.31778 44.8896 8.33203 45.6562H12.6563V43.5286L8.3295 42.4468ZM39.6705 42.4468L35.3438 43.5287V45.6562H39.668C39.6822 44.8896 39.7039 43.8328 39.6705 42.4468ZM14.3438 43.8465V45.6562H33.6562V43.8806C26.9908 45.1176 22.2678 45.1031 14.3438 43.8464V43.8465Z" fill="white"/>
</g>
</svg>
