<svg width="32" height="32" viewBox="0 0 32 32" fill="none" xmlns="http://www.w3.org/2000/svg">
<g id="tiktok 1">
<g id="Group">
<path id="Vector" d="M29.9453 9.12804V14.0067C29.6827 14.0067 29.368 14.06 29.0533 14.06C26.7656 14.0484 24.5552 13.2307 22.8107 11.7507V22.1374C22.8203 24.1823 22.1569 26.1736 20.9227 27.804C20.0528 28.9742 18.9216 29.925 17.6193 30.5806C16.3169 31.2361 14.8794 31.5784 13.4213 31.58C11.8352 31.5799 10.2752 31.1752 8.88913 30.4041C7.50301 29.633 6.33652 28.521 5.5 27.1734C7.17867 28.7467 9.43333 29.744 11.9 29.744C13.3515 29.7473 14.7832 29.4067 16.0778 28.7502C17.3724 28.0936 18.493 27.1397 19.348 25.9667C20.5027 24.3934 21.2373 22.452 21.2373 20.3014V9.86137C22.916 11.3307 25.0667 12.1707 27.48 12.1707C27.7947 12.1707 28.0573 12.1707 28.372 12.1174V8.9707C28.844 9.07604 29.264 9.12804 29.736 9.12804H29.9453Z" fill="white"/>
<path id="Vector_2" d="M14.7333 12.7463V18.1503C14.3572 18.0465 13.9688 17.9936 13.5787 17.9929C11.2693 17.9929 9.38132 19.9343 9.38132 22.2943C9.38132 22.8196 9.48665 23.2916 9.64399 23.7636C8.59465 22.9769 7.85999 21.7169 7.85999 20.3009C7.85999 17.9409 9.74799 15.9996 12.0573 15.9996C12.476 15.9996 12.844 16.0529 13.2107 16.1569V12.6943H13.5253C13.9453 12.6943 14.3653 12.6943 14.732 12.7476L14.7333 12.7463ZM23.5973 5.24492C22.6533 4.40492 21.9706 3.25159 21.604 2.04492H22.864V2.77959C22.9792 3.63482 23.2266 4.46563 23.5973 5.24492Z" fill="white"/>
<path id="Vector_3" d="M28.424 9.02226V12.1689C28.1613 12.2223 27.8467 12.2223 27.532 12.2223C25.2446 12.2113 23.0342 11.3946 21.2893 9.91559V20.3023C21.2984 22.3463 20.635 24.3365 19.4013 25.9663C17.6693 28.2756 14.9947 29.7436 11.952 29.7436C9.48532 29.7436 7.23065 28.7476 5.55199 27.1729C4.62826 25.6749 4.13809 23.9501 4.13599 22.1903C4.13599 17.1009 8.17599 12.9569 13.2107 12.7996V16.2623C12.8349 16.1586 12.4471 16.1057 12.0573 16.1049C9.74799 16.1049 7.85999 18.0449 7.85999 20.4063C7.85999 21.8223 8.54265 23.1343 9.64399 23.8689C10.2213 25.4956 11.7947 26.7009 13.5773 26.7009C15.8867 26.7009 17.7747 24.7596 17.7747 22.3996V2.04492H21.604C21.972 3.30492 22.6533 4.40492 23.5973 5.24492C24.0742 6.19104 24.754 7.02019 25.5884 7.67315C26.4228 8.32611 27.391 8.78678 28.424 9.02226Z" fill="white"/>
<path id="Vector_4" d="M13.2107 10.912V12.6933C8.17465 12.8506 4.13599 16.9946 4.13599 22.084C4.13599 23.92 4.65999 25.5986 5.55199 27.068C4.63261 26.1765 3.90306 25.1082 3.4072 23.9275C2.91135 22.7468 2.65945 21.4779 2.66665 20.1973C2.66665 15.0026 6.86399 10.8066 12.004 10.8066C12.424 10.8066 12.844 10.86 13.2107 10.912Z" fill="white"/>
<path id="Vector_5" d="M21.604 2.04533H17.7746V22.2947C17.7746 24.6547 15.8866 26.5973 13.5786 26.5973C11.7426 26.5973 10.2213 25.4427 9.64398 23.764C10.3253 24.236 11.164 24.5507 12.0573 24.5507C14.364 24.5507 16.2533 22.6627 16.2533 20.3013V0H21.3426V0.105333C21.3426 0.314667 21.3426 0.524 21.3946 0.734667C21.3946 1.15467 21.5 1.62667 21.604 2.04533ZM28.424 7.08133V8.97067C26.3253 8.55067 24.5426 7.13467 23.5453 5.24533C24.8639 6.47982 26.6187 7.14021 28.424 7.08133Z" fill="white"/>
</g>
</g>
</svg>
