<svg width="48" height="48" viewBox="0 0 48 48" fill="none" xmlns="http://www.w3.org/2000/svg">
<g id="users 1" clip-path="url(#clip0_5_9)">
<path id="Vector" d="M23.8667 23.0666C27.4667 23.0666 30.2667 20.1333 30.2667 16.5333C30.2667 12.9333 27.3333 10.1333 23.7333 10.1333C20.1333 10.1333 17.3333 13.0666 17.3333 16.5333C17.3333 20.1333 20.2667 23.0666 23.8667 23.0666ZM23.7333 12.8C23.8667 12.8 23.8667 12.8 23.7333 12.8C25.8667 12.8 27.6 14.5333 27.6 16.6666C27.6 18.8 25.8667 20.4 23.7333 20.4C21.6 20.4 20 18.6666 20 16.6666C20 14.5333 21.7333 12.8 23.7333 12.8Z" fill="white"/>
<path id="Vector_2" d="M43.6 22.2667C41.0667 20 37.7333 18.8 34.2667 18.9334H33.2C32.9333 20 32.5333 20.9334 32 21.7334C32.8 21.6 33.4667 21.6 34.2667 21.6C36.8 21.4667 39.3333 22.2667 41.3333 23.7334V33.3334H44V22.6667L43.6 22.2667Z" fill="white"/>
<path id="Vector_3" d="M31.2 10.3999C31.8667 8.79994 33.7333 7.99994 35.4667 8.66661C37.0667 9.33328 37.8667 11.1999 37.2 12.9333C36.6667 14.1333 35.4667 14.9333 34.2667 14.9333C34 14.9333 33.6 14.9333 33.3333 14.7999C33.4667 15.4666 33.4667 16.1333 33.4667 16.6666V17.4666C33.7333 17.4666 34 17.5999 34.2667 17.5999C37.6 17.5999 40.2667 14.9333 40.2667 11.7333C40.2667 8.39994 37.6 5.73328 34.4 5.73328C32.2667 5.73328 30.4 6.79994 29.3333 8.66661C30 9.06661 30.6667 9.59994 31.2 10.3999Z" fill="white"/>
<path id="Vector_4" d="M16 21.8667C15.4667 21.0667 15.0667 20.1334 14.8 19.0667H13.7333C10.2667 18.9334 6.93333 20.1334 4.4 22.2667L4 22.6667V33.3334H6.66667V23.7334C8.8 22.2667 11.2 21.4667 13.7333 21.6C14.5333 21.6 15.3333 21.7334 16 21.8667Z" fill="white"/>
<path id="Vector_5" d="M13.7333 17.4667C14 17.4667 14.2667 17.4667 14.5333 17.3334V16.5334C14.5333 15.8667 14.5333 15.2001 14.6667 14.6667C14.4 14.8 14 14.8001 13.7333 14.8001C12 14.8001 10.5333 13.3334 10.5333 11.6C10.5333 9.86672 12 8.40005 13.7333 8.40005C15.0667 8.40005 16.2667 9.20005 16.8 10.4001C17.3333 9.73338 18.1333 9.06672 18.8 8.53338C17.0667 5.73338 13.4667 4.80005 10.6667 6.53338C7.86667 8.26672 6.93333 11.8667 8.66667 14.6667C9.73333 16.4001 11.6 17.4667 13.7333 17.4667Z" fill="white"/>
<path id="Vector_6" d="M34.8 30.2667L34.5333 29.8667C31.8667 26.9333 28.1333 25.2 24.1333 25.3333C20.1333 25.2 16.2667 26.9333 13.6 29.8667L13.3333 30.2667V40.4C13.3333 41.6 14.2667 42.6667 15.6 42.6667H32.6667C33.8667 42.6667 34.9333 41.6 34.9333 40.4V30.2667H34.8ZM32.1333 40H16V31.2C18.1333 29.0667 21.0667 28 24.1333 28C27.0667 27.8667 30 29.0667 32.1333 31.2V40Z" fill="white"/>
</g>
<defs>
<clipPath id="clip0_5_9">
<rect width="48" height="48" fill="white"/>
</clipPath>
</defs>
</svg>
