<svg width="32" height="32" viewBox="0 0 32 32" fill="none" xmlns="http://www.w3.org/2000/svg">
<g id="whatsapp 1">
<path id="Vector" d="M16.0533 2.6661C8.77334 2.6661 2.84 8.59943 2.84 15.8794C2.84 18.2128 3.45334 20.4794 4.6 22.4794L2.73334 29.3328L9.73334 27.4928C11.6667 28.5461 13.84 29.1061 16.0533 29.1061C23.3333 29.1061 29.2667 23.1728 29.2667 15.8928C29.2667 12.3594 27.8933 9.03943 25.4 6.54609C24.1776 5.31133 22.7216 4.33232 21.1169 3.66616C19.5121 3.00001 17.7908 2.66004 16.0533 2.6661ZM16.0667 4.89276C19 4.89276 21.7467 6.03943 23.8267 8.11943C24.8475 9.1399 25.6568 10.3519 26.2082 11.6858C26.7596 13.0197 27.0423 14.4494 27.04 15.8928C27.04 21.9461 22.1067 26.8661 16.0533 26.8661C14.08 26.8661 12.1467 26.3461 10.4667 25.3328L10.0667 25.1061L5.90667 26.1994L7.01334 22.1461L6.74667 21.7194C5.64526 19.971 5.06269 17.9459 5.06667 15.8794C5.08 9.82609 10 4.89276 16.0667 4.89276ZM11.3733 9.77276C11.16 9.77276 10.8 9.85276 10.4933 10.1861C10.2 10.5194 9.33334 11.3328 9.33334 12.9461C9.33334 14.5728 10.52 16.1328 10.6667 16.3594C10.8533 16.5861 13.0133 19.9194 16.3333 21.3328C17.12 21.6928 17.7333 21.8928 18.2133 22.0394C19 22.2928 19.72 22.2528 20.2933 22.1728C20.9333 22.0794 22.24 21.3728 22.52 20.5994C22.8 19.8261 22.8 19.1728 22.72 19.0261C22.6267 18.8928 22.4133 18.8128 22.08 18.6661C21.7467 18.4794 20.12 17.6794 19.8267 17.5728C19.52 17.4661 19.3333 17.4128 19.08 17.7328C18.8667 18.0661 18.2267 18.8128 18.04 19.0261C17.84 19.2528 17.6533 19.2794 17.3333 19.1194C16.9867 18.9461 15.92 18.5994 14.6667 17.4794C13.68 16.5994 13.0267 15.5194 12.8267 15.1861C12.6667 14.8661 12.8133 14.6661 12.9733 14.5194C13.12 14.3728 13.3333 14.1328 13.4667 13.9328C13.64 13.7461 13.6933 13.5994 13.8 13.3861C13.9067 13.1594 13.8533 12.9728 13.7733 12.8128C13.6933 12.6661 13.0267 11.0128 12.7467 10.3594C12.48 9.71943 12.2133 9.79943 12 9.7861C11.8133 9.7861 11.6 9.77276 11.3733 9.77276Z" fill="white"/>
</g>
</svg>
